C:\Users\u0150099\Documents\master_thesis\3dpredictsim\Polynomials\Fal_s1_mtjc5_FK_sc_MTc5\dummy_motion.mot
nRows=11
nColumns=34

name C:\Users\u0150099\Documents\master_thesis\3dpredictsim\Polynomials\Fal_s1_mtjc5_FK_sc_MTc5\dummy_motion.mot
datacolumns 34
datarows 11
range 37.5100000000 37.6100000000
endheader
time	pelvis_tilt	pelvis_list	pelvis_rotation	pelvis_tx	pelvis_ty	pelvis_tz	hip_flexion_r	hip_adduction_r	hip_rotation_r	knee_angle_r	ankle_angle_r	subtalar_angle_r	mtj_angle_r	mtp_angle_r	hip_flexion_l	hip_adduction_l	hip_rotation_l	knee_angle_l	ankle_angle_l	subtalar_angle_l	mtj_angle_l	mtp_angle_l	lumbar_extension	lumbar_bending	lumbar_rotation	arm_flex_r	arm_add_r	arm_rot_r	elbow_flex_r	arm_flex_l	arm_add_l	arm_rot_l	elbow_flex_l
       37.5100000000	        0.0000000000	        0.0000000000	        0.0000000000	        0.0000000000	        0.0000000000	        0.0000000000	      -33.1453546308	       10.9994657982	       -2.5260121372	      -55.2757287886	       11.2592131958	        6.8310576631	       -8.4858969319	       29.2339921339	        0.0000000000	        0.0000000000	        0.0000000000	        0.0000000000	        0.0000000000	        0.0000000000	        0.0000000000	        0.0000000000	       11.1597979740	        5.5936139772	      -11.6779264466	        0.0000000000	        0.0000000000	        0.0000000000	        0.0000000000	        0.0000000000	        0.0000000000	        0.0000000000	        0.0000000000	
       37.5200000000	        0.0000000000	        0.0000000000	        0.0000000000	        0.0000000000	        0.0000000000	        0.0000000000	      -19.0120625069	        7.9019893371	       25.9962240525	      -19.5178834850	        1.7051771085	        2.0602013777	       16.0196522166	      -14.2217183773	        0.0000000000	        0.0000000000	        0.0000000000	        0.0000000000	        0.0000000000	        0.0000000000	        0.0000000000	        0.0000000000	       21.8990980811	       24.0654195880	      -19.0674255770	        0.0000000000	        0.0000000000	        0.0000000000	        0.0000000000	        0.0000000000	        0.0000000000	        0.0000000000	        0.0000000000	
       37.5300000000	        0.0000000000	        0.0000000000	        0.0000000000	        0.0000000000	        0.0000000000	        0.0000000000	       30.8828889179	      -14.3014893093	        6.1705383767	      -14.1015780723	        7.3619070680	      -20.9603804440	        7.1064174115	       40.8612568250	        0.0000000000	        0.0000000000	        0.0000000000	        0.0000000000	        0.0000000000	        0.0000000000	        0.0000000000	        0.0000000000	       -3.9213809172	       -6.3035914804	       13.1060191707	        0.0000000000	        0.0000000000	        0.0000000000	        0.0000000000	        0.0000000000	        0.0000000000	        0.0000000000	        0.0000000000	
       37.5400000000	        0.0000000000	        0.0000000000	        0.0000000000	        0.0000000000	        0.0000000000	        0.0000000000	      -33.6768824133	       24.6532606904	      -22.0930302140	      -18.7498394603	       19.8935287378	       18.8400960350	       -3.8523392663	       24.8704604816	        0.0000000000	        0.0000000000	        0.0000000000	        0.0000000000	        0.0000000000	        0.0000000000	        0.0000000000	        0.0000000000	       -9.2848905321	      -26.4648055186	       -2.7666069169	        0.0000000000	        0.0000000000	        0.0000000000	        0.0000000000	        0.0000000000	        0.0000000000	        0.0000000000	        0.0000000000	
       37.5500000000	        0.0000000000	        0.0000000000	        0.0000000000	        0.0000000000	        0.0000000000	        0.0000000000	      -41.3746327423	       11.2795167697	      -25.1301232720	      -49.2695350452	       12.2869530558	       -6.8187884447	      -11.8801109442	        7.8012032891	        0.0000000000	        0.0000000000	        0.0000000000	        0.0000000000	        0.0000000000	        0.0000000000	        0.0000000000	        0.0000000000	       -3.2477141614	      -11.4288781866	      -14.3620889913	        0.0000000000	        0.0000000000	        0.0000000000	        0.0000000000	        0.0000000000	        0.0000000000	        0.0000000000	        0.0000000000	
       37.5600000000	        0.0000000000	        0.0000000000	        0.0000000000	        0.0000000000	        0.0000000000	        0.0000000000	      -39.5573290713	      -17.7527439987	      -12.8750384243	      -14.1325811208	        4.1622158783	        7.4949791380	        1.0460863900	       45.9827934061	        0.0000000000	        0.0000000000	        0.0000000000	        0.0000000000	        0.0000000000	        0.0000000000	        0.0000000000	        0.0000000000	        1.0357618391	      -23.9089541757	        5.0361379447	        0.0000000000	        0.0000000000	        0.0000000000	        0.0000000000	        0.0000000000	        0.0000000000	        0.0000000000	        0.0000000000	
       37.5700000000	        0.0000000000	        0.0000000000	        0.0000000000	        0.0000000000	        0.0000000000	        0.0000000000	       21.6478974603	      -22.5139594148	      -12.9821241389	      -57.7417056504	        2.5470639635	       -7.9083302303	       22.6525816587	        0.9444880545	        0.0000000000	        0.0000000000	        0.0000000000	        0.0000000000	        0.0000000000	        0.0000000000	        0.0000000000	        0.0000000000	       29.8802913241	      -18.4292391940	        5.8439211359	        0.0000000000	        0.0000000000	        0.0000000000	        0.0000000000	        0.0000000000	        0.0000000000	        0.0000000000	        0.0000000000	
       37.5800000000	        0.0000000000	        0.0000000000	        0.0000000000	        0.0000000000	        0.0000000000	        0.0000000000	      -27.7992181006	      -27.3744175545	        4.4454461700	      -72.3295023817	        3.3679683927	        7.8389051540	        9.8518484088	       29.3705001774	        0.0000000000	        0.0000000000	        0.0000000000	        0.0000000000	        0.0000000000	        0.0000000000	        0.0000000000	        0.0000000000	       27.2451382347	       -8.4027934745	       -0.6071497669	        0.0000000000	        0.0000000000	        0.0000000000	        0.0000000000	        0.0000000000	        0.0000000000	        0.0000000000	        0.0000000000	
       37.5900000000	        0.0000000000	        0.0000000000	        0.0000000000	        0.0000000000	        0.0000000000	        0.0000000000	      -32.9795102613	       19.3622973862	      -12.5246334821	      -60.9100033492	      -15.8135502662	       24.1479322307	       14.5311280018	       -1.9186822053	        0.0000000000	        0.0000000000	        0.0000000000	        0.0000000000	        0.0000000000	        0.0000000000	        0.0000000000	        0.0000000000	       28.9819518983	       -0.1178661764	       10.8494812266	        0.0000000000	        0.0000000000	        0.0000000000	        0.0000000000	        0.0000000000	        0.0000000000	        0.0000000000	        0.0000000000	
       37.6000000000	        0.0000000000	        0.0000000000	        0.0000000000	        0.0000000000	        0.0000000000	        0.0000000000	       36.7928775813	       -2.5666176046	        7.3127868128	      -10.9523608920	       28.1147491334	       26.5367604495	        4.8918052773	       -5.7012257983	        0.0000000000	        0.0000000000	        0.0000000000	        0.0000000000	        0.0000000000	        0.0000000000	        0.0000000000	        0.0000000000	       10.1737638258	      -11.8037566633	       22.0172130976	        0.0000000000	        0.0000000000	        0.0000000000	        0.0000000000	        0.0000000000	        0.0000000000	        0.0000000000	        0.0000000000	
       37.6100000000	        0.0000000000	        0.0000000000	        0.0000000000	        0.0000000000	        0.0000000000	        0.0000000000	      -38.1991394634	       20.4969332289	      -15.8855946321	      -45.0960273047	      -11.2154771520	       -8.8489310264	       27.8055654459	      -22.9081989455	        0.0000000000	        0.0000000000	        0.0000000000	        0.0000000000	        0.0000000000	        0.0000000000	        0.0000000000	        0.0000000000	        3.1753694046	       15.9973929416	      -19.9084748110	        0.0000000000	        0.0000000000	        0.0000000000	        0.0000000000	        0.0000000000	        0.0000000000	        0.0000000000	        0.0000000000	
